<?xml version="1.0" encoding="UTF-8"?>
<svg id="Capa_1" xmlns="http://www.w3.org/2000/svg" viewBox="0 0 800 800">
  <path d="M659.49,389.96c-2.84,0-5.67,0-8.51,0-118.87.11-442.3.22-561.17.36-5.08,0-10.16.31-15.24.48-5.68.18-8.5,3.71-8.7,8.79-.22,5.45,3.11,9.06,8.38,10.31,2.3.55,4.82.16,7.24.16,121.54,0,447.62,0,569.16,0,2.89,0,5.78,0,11.13,0-4.47,3.48-7.22,5.77-10.11,7.86-32.03,23.24-52.27,54.49-62.63,92.4-1.25,4.57-2.32,9.17,4.47,10.76,8.3,1.94,13.22.25,14.96-6.3,10.85-40.97,34.37-72.5,71.78-92.27,14.52-7.67,31.18-11.24,46.78-16.92,2.6-.95,4.74-3.16,7.1-4.79-2.44-2.19-4.62-5.84-7.37-6.35-50.84-9.46-87.08-37.78-109.24-84.19-3.93-8.23-6.24-17.24-9.24-25.91-1.98-5.72-7.46-7.45-15.65-5.28-6.55,1.74-4.84,6.22-3.73,10.38,10.49,39.36,31.79,71.25,65.48,94.56,1.95,1.35,3.8,2.83,5.69,4.25-.19.57-.38,1.14-.57,1.71Z"/>
</svg>