<?xml version="1.0" encoding="UTF-8"?>
<svg id="Capa_1" xmlns="http://www.w3.org/2000/svg" viewBox="0 0 800 800">
  <defs>
    <style>
      .cls-1 {
        fill: #4285f3;
      }

      .cls-2 {
        fill: #e94335;
      }

      .cls-3 {
        fill: #34a753;
      }

      .cls-4 {
        fill: #fabb05;
      }
    </style>
  </defs>
  <path class="cls-2" d="M72.12,232.27c10.48-17.49,19.72-35.87,31.65-52.3,50.58-69.68,117.23-117.57,200.23-140.85,95.92-26.9,188.94-18.35,277.79,27.86,25.83,13.44,49.27,30.44,71.02,49.77,1.96,1.75,3.87,3.56,5.45,5.01-35.95,35.96-71.63,71.63-107.17,107.17-8.76-6.66-17.62-14.08-27.14-20.52-30.11-20.37-63.58-30.9-99.77-33.73-102.47-8.02-192.69,57.99-225.27,148.87-.66,1.83-1.48,3.61-2.22,5.41-.88-.87-1.68-1.85-2.66-2.61-25.4-19.72-50.79-39.44-76.24-59.09-15.18-11.72-30.45-23.33-45.67-34.99Z"/>
  <path class="cls-3" d="M196.76,471.88c8.77,24.4,20.36,47.3,36.48,67.73,38.08,48.25,87.2,78.13,148.43,85.4,53.63,6.37,104.4-3.62,150.53-33.09.74-.47,1.53-.88,2.3-1.31,24.67,19.16,49.37,38.3,74.01,57.5,15.82,12.33,31.56,24.76,47.33,37.14-24.32,23.11-52.03,41.24-82.28,55.53-44.6,21.06-91.76,31.66-140.89,34.55-62.57,3.69-122.64-6.46-179.63-32.57-79.74-36.54-139.64-94.2-180.15-172.01-.4-.77-.58-1.66-.87-2.49,1.45-1.01,2.96-1.96,4.35-3.04,40.13-31.11,80.25-62.23,120.38-93.35Z"/>
  <path class="cls-1" d="M655.84,685.25c-15.78-12.38-31.52-24.82-47.33-37.14-24.64-19.2-49.34-38.34-74.01-57.5,20.8-14.51,38.61-31.9,52.07-53.56,10.71-17.23,18.08-35.78,22.41-55.57.25-1.16.17-2.4.27-4.01h-201.31v-145.16h354.11c1.72,14.57,3.97,29.13,5.07,43.77,3.61,48.24-.2,95.92-12.64,142.74-17,63.99-48.37,119.65-96.97,165.13-.51.48-1.11.87-1.67,1.31Z"/>
  <path class="cls-4" d="M196.76,471.88c-40.12,31.12-80.24,62.24-120.38,93.35-1.4,1.08-2.9,2.03-4.35,3.04-15.54-29.6-26.14-60.96-32.86-93.64-7.03-34.17-9.18-68.67-6.41-103.46,3.87-48.57,16.71-94.64,38.64-138.16.15-.3.48-.5.73-.74,15.23,11.66,30.5,23.27,45.68,34.99,25.45,19.65,50.84,39.38,76.24,59.09.97.76,1.78,1.74,2.66,2.61-3.48,16.64-7.96,33.15-10.2,49.95-3.83,28.72-.18,57.04,8.05,84.77.8,2.71,1.48,5.46,2.21,8.19Z"/>
</svg>