<?xml version="1.0" encoding="UTF-8"?>
<svg id="Capa_1" xmlns="http://www.w3.org/2000/svg" viewBox="0 0 955.15 563.74">
  <defs>
    <style>
      .cls-1 {
        fill: #de142c;
      }
    </style>
  </defs>
  <path class="cls-1" d="M296.95,171.7c13.33-24.27,30.3-43.62,50.46-60.14,35.09-28.75,75.09-45.43,120.66-48.5,93.61-6.31,168.62,56.83,194.73,108.38-1.97.13-3.72.35-5.46.35-31.63.03-63.26-.02-94.89.12-3.88.02-6.32-1.2-8.67-4.38-16.68-22.65-38.43-37.22-67-39.41-32.13-2.47-57.78,10.35-77.05,35.65-4.52,5.94-8.82,8.33-16.3,8.2-28.63-.5-57.27-.23-85.9-.25-2.97,0-5.94,0-10.59,0ZM486.69,79.26c-16.33-.43-28.91,1.4-41.08,5.93-20.78,7.73-36.5,21.48-47.93,40.26-2.98,4.89-1.68,9.58,2.62,12.13,3.71,2.21,7.93.88,11.08-3.66,1.8-2.59,3.19-5.48,5.08-7.99,27.49-36.49,86.68-40.96,119.17-8.8,5.63,5.57,10.13,12.27,15.2,18.41,2.67,3.24,5.97,4.29,9.71,2.04,3.61-2.17,4.77-5.5,3.22-9.45-.9-2.3-2.01-4.6-3.45-6.6-18.94-26.3-44.31-41.02-73.63-42.29Z"/>
  <path d="M414.41,402.14c-4.24,2.63-7.4,4.59-11.33,7.02,2.73-4.2,4.96-7.78,7.34-11.25,14.36-20.98,21.27-44.96,27.87-69.07,2.06-7.53,4.27-15.03,6.63-22.48,4.85-15.3,11.73-19.25,27.51-16.31-2.57,15.25-5.14,30.5-7.83,46.53,9.76,0,18.21.12,26.64-.16.95-.03,2.66-2.36,2.61-3.57-.97-23.76-3.94-47.09-16.17-68.2-.16-.27-.19-.61.67-1.87,5.72,5.71,11.7,11.16,17.09,17.16,15.38,17.13,24.32,37.57,29.65,59.71,6.04,25.12,16.49,48.07,32.82,68.21.17.21.14.6.31,1.49-3.84-3-7.34-5.74-11.52-9.01-.21,1.8-.37,2.55-.37,3.3,0,19.47-.04,38.94.03,58.41.03,7.27,3.81,12.93,9.32,14.43,6.79,1.84,13.43-1.77,16.36-8.91,1.01-2.45,1.75-5.06,3.04-7.35,1.83-3.24,4.84-4.9,8.42-3.28,3.7,1.67,3.75,5.32,2.01,8.12-3.57,5.71-7.07,11.78-11.88,16.35-11.75,11.19-26.55,16.2-42.44,18-7.73.87-15.52,1.11-24.24,1.71,0-3.96,0-7.23,0-10.5.06-32.45.11-64.9.2-97.35.02-8.74-2.73-12.6-11.3-12.92-11.44-.43-22.93-.04-34.39.38-4.77.17-7.25,3.61-7.56,9.47-.22,4.15-.1,8.32-.11,12.48-.05,30.79-.09,61.58-.13,92.37,0,1.64,0,3.28,0,4.88-21.93,2.51-53.06-3.71-64.91-18.67,4.26-.5,8.58-.54,12.64-1.58,8.32-2.14,12.93-8.2,12.97-16.68.09-19.79.03-39.58.03-60.85Z"/>
  <path d="M691.91,289.11c.18,21.5-10.19,38.17-29.06,41.21-7.32,1.18-14.94.59-22.43.6-19.15.04-38.31-.03-57.46-.06-35.38-.06-58.16-15.53-70.68-48.66-7.05-18.67-13.33-37.64-20.1-56.42-1.85-5.15-3.77-10.37-6.47-15.09-3.02-5.29-7.66-5.41-10.4-.13-6.46,12.42-9.53,25.98-12.73,40.13-18.53,1.11-34.97,11.06-52.9,19.1,4.73-13.07,9.24-25.48,13.71-37.9,4-11.11,7.78-22.3,12.01-33.32,2.02-5.25,4.41-10.47,7.44-15.19,18.44-28.77,60.17-27.8,76.27,2.32,6.84,12.81,11.11,27.01,16.29,40.68,5.25,13.84,9.99,27.88,15.32,41.69,5.85,15.14,14.22,20.74,30.48,20.78,35.31.08,70.62.04,105.93.07,1.6,0,3.2.13,4.77.2Z"/>
  <path d="M607.83,365.46c-1.17.83-2.33,1.65-4.24,3.01,10.9,16.09,25.62,27.89,40.54,39.45,15.37,11.91,32.9,17.78,52.7,17.35-14.22,20.56-40.71,31.4-66.14,22.46-10.88-3.83-20.27-10-28.69-17.7-17.01-15.57-33.07-32.03-43.76-52.75-4.4-8.54-7.52-17.74-11.18-26.65-2.46-5.98-4.84-12-7.83-19.41,18.73,21.17,41.52,31.76,68.77,32.84-.06.47-.12.94-.18,1.42Z"/>
  <path d="M432.75,271.19c-6.94,22.91-17.04,41.86-37.82,53.15-7.42,4.03-15.22,6.55-23.79,6.56-23.14.01-46.28.23-69.42.2-14.73-.02-26.72-9.71-30.96-25.05-1.19-4.3-1.47-8.84-2.22-13.27-.53-3.12.96-4.16,3.88-4.15,32.46.11,64.94-.37,97.38.46,22.62.58,43.1-4.82,62.95-17.9Z"/>
  <path d="M262.48,425.16c26.07,1.36,46.25-9.45,64.31-25.12,8.78-7.62,17.03-15.87,25.34-24.02,3.22-3.15,7.23-6.61.42-11.9,25.23-.95,46.27-9.24,63.78-26.01.52.33,1.04.67,1.55,1-5.13,12.9-9.14,26.39-15.62,38.57-13.41,25.22-32.71,45.69-56.29,61.73-18.35,12.48-38.26,15.71-59.19,6.27-9.65-4.35-16.73-11.78-24.29-20.52Z"/>
  <path class="cls-1" d="M632.7,230.7c16.15,0,32.3.21,48.44-.12,5.13-.1,7.29,1.8,7.77,6.57.38,3.79.84,7.58,1.46,11.34.49,3.01-.39,4.22-3.62,4.21-33.29-.11-66.58-.04-99.87-.2-7.9-.04-13.24-5.12-13.37-11.89-.13-6.48,2.96-9.78,9.76-9.82,16.48-.11,32.96-.04,49.44-.04,0-.02,0-.04,0-.06Z"/>
  <path class="cls-1" d="M322.98,252.64c-15.97,0-31.94-.13-47.9.09-4.17.06-5.37-1.32-4.64-5.22.7-3.76,1.29-7.55,1.65-11.35.38-4.07,2.23-5.56,6.45-5.53,26.45.17,52.9.11,79.35.11,6.49,0,12.98.04,19.46-.07,4.4-.07,7.2,2.1,8.99,5.87,1.81,3.8.67,7.13-1.75,10.19-3.37,4.24-7.95,5.83-13.2,5.83-16.14.01-32.27,0-48.41,0v.08Z"/>
  <path class="cls-1" d="M278.86,211.29c2.75-6.81,4.99-12.78,7.67-18.56.49-1.06,2.72-1.87,4.15-1.88,33.25-.14,66.5-.15,99.76-.16.96,0,1.91.3,3.18.51-1.33,6.16-2.36,12.16-4.1,17.94-.36,1.2-3.37,2.26-5.16,2.27-22.61.19-45.22.18-67.83.21-10.31.01-20.62.01-30.92-.01-1.76,0-3.52-.16-6.73-.32Z"/>
  <path class="cls-1" d="M681.56,211.12c-2.58.22-4.17.47-5.77.47-33.46,0-66.92-.01-100.37-.18-1.54,0-4.09-1.27-4.44-2.46-1.65-5.68-2.71-11.53-4.08-17.84,2.67-.15,5.27-.43,7.87-.44,31.13-.06,62.26,0,93.38-.19,4.18-.03,6.34,1.36,7.6,5.23,1.59,4.87,3.6,9.61,5.81,15.41Z"/>
  <g>
    <path d="M103.48,265.27l-12.88,33.2h8.57l2.05-5.81h12.35l2,5.81h8.76l-12.74-33.2h-8.1ZM103.56,286.02l3.91-11.08,3.81,11.08h-7.72Z"/>
    <polygon points="206.3 265.27 195.03 282.36 183.73 265.27 177.69 265.27 177.69 298.47 186.02 298.47 186.02 281.49 192.3 290.98 197.73 290.98 204.05 281.48 204.05 298.47 212.34 298.47 212.34 265.27 206.3 265.27"/>
  </g>
  <path d="M759.85,265.27l-12.88,33.2h8.57l2.05-5.81h12.35l2,5.81h8.76l-12.74-33.2h-8.1ZM759.93,286.02l3.91-11.08,3.81,11.08h-7.72Z"/>
  <path d="M843.71,265.27l-12.88,33.2h8.57l2.05-5.81h12.35l2,5.81h8.76l-12.74-33.2h-8.1ZM843.79,286.02l3.91-11.08,3.81,11.08h-7.72Z"/>
</svg>